<svg width="501" height="156" xmlns="http://www.w3.org/2000/svg" xmlns:xlink="http://www.w3.org/1999/xlink" xml:space="preserve" overflow="hidden"><defs><clipPath id="clip0"><rect x="389" y="270" width="501" height="156"/></clipPath><clipPath id="clip1"><rect x="389" y="270" width="501" height="156"/></clipPath><clipPath id="clip2"><rect x="390" y="271" width="500" height="155"/></clipPath><clipPath id="clip3"><rect x="390" y="271" width="500" height="155"/></clipPath></defs><g clip-path="url(#clip0)" transform="translate(-389 -270)"><g clip-path="url(#clip1)"><g clip-path="url(#clip2)"><g clip-path="url(#clip3)"><g><path d="M66.1119 218.197C64.972 215.461 66.2725 212.31 69.0136 211.176 71.7547 210.036 74.8999 211.336 76.0398 214.077L102.409 277.106C102.585 277.516 102.818 277.826 103.093 278.018 103.378 278.22 103.751 278.345 104.186 278.365 104.637 278.396 105.036 278.314 105.347 278.148 105.647 277.982 105.917 277.702 106.134 277.319L139.659 217.793C141.11 215.202 144.39 214.279 146.976 215.73 149.567 217.181 150.494 220.461 149.043 223.052L115.518 282.573C114.301 284.734 112.56 286.433 110.482 287.568 108.414 288.697 106.057 289.236 103.596 289.096 101.124 288.951 98.8336 288.133 96.9061 286.77 94.9682 285.397 93.4396 283.505 92.481 281.226L66.1119 218.197" fill="#004AAD" fill-rule="evenodd" fill-opacity="1" transform="matrix(1.00516 0 0 1 390 111.135)"/><g><path d="M-0.175522 70.3182C-1.31547 73.0541-0.0148934 76.2045 2.72616 77.3392 5.46721 78.4792 8.61242 77.1786 9.75236 74.4375L36.1214 11.4089C36.2975 10.9996 36.5307 10.6887 36.8053 10.497 37.0903 10.2949 37.4634 10.1705 37.8986 10.1498 38.3494 10.1187 38.7484 10.2016 39.0593 10.3674 39.3599 10.5332 39.6293 10.813 39.8469 11.1965L73.3717 70.7224C74.8225 73.3131 78.1024 74.2355 80.688 72.7846 83.2788 71.3338 84.2063 68.0538 82.7555 65.4631L49.2307 5.94237C48.0131 3.78166 46.2721 2.0821 44.1943 0.94734 42.1268-0.182242 39.7692-0.721125 37.3079-0.581223 34.8363-0.436139 32.5461 0.382549 30.6185 1.7453 28.6806 3.11842 27.1521 5.00969 26.1935 7.28958L-0.175522 70.3182" stroke="#004AAD" stroke-width="3.16259" stroke-linecap="butt" stroke-linejoin="miter" stroke-miterlimit="8" stroke-opacity="1" fill="none" fill-rule="nonzero" transform="matrix(1.00516 0 0 -1 456.63 399.65)"/></g><path d="M123.617 251.52C122.166 248.929 123.089 245.654 125.679 244.203 128.265 242.752 131.54 243.675 132.991 246.265L150.479 277.298C150.696 277.681 150.966 277.961 151.266 278.122 151.577 278.293 151.971 278.371 152.427 278.345 152.847 278.324 153.214 278.2 153.499 277.997 153.79 277.79 154.033 277.479 154.199 277.086L180.438 214.368C181.387 212.098 181.755 209.803 181.542 207.606 181.33 205.409 180.537 203.232 179.174 201.186 177.822 199.149 176.127 197.584 174.184 196.548 172.252 195.512 169.998 194.968 167.531 194.968L107.979 194.968C107.534 194.968 107.145 195.061 106.834 195.242 106.528 195.413 106.254 195.698 106.031 196.077 105.803 196.476 105.679 196.859 105.679 197.196 105.679 197.543 105.787 197.932 106.015 198.331L119.954 223.088C121.405 225.674 120.482 228.949 117.897 230.399 115.306 231.85 112.031 230.928 110.58 228.342L96.6418 203.585C95.5019 201.564 94.9423 199.356 94.9578 197.113 94.9785 194.864 95.5692 192.657 96.7455 190.651 97.9269 188.631 99.5539 187.019 101.497 185.91 103.43 184.796 105.632 184.206 107.979 184.206L167.531 184.206C171.739 184.206 175.697 185.2 179.231 187.092 182.76 188.978 185.786 191.734 188.128 195.258 190.47 198.771 191.838 202.616 192.216 206.595 192.6 210.569 191.983 214.601 190.356 218.487L164.122 281.205C163.158 283.495 161.635 285.381 159.717 286.744 157.795 288.107 155.505 288.92 153.012 289.065 150.556 289.21 148.204 288.666 146.136 287.542 144.059 286.407 142.323 284.713 141.105 282.552L123.617 251.52" fill="#004AAD" fill-rule="evenodd" fill-opacity="1" transform="matrix(1.00516 0 0 1 390 111.135)"/><g><path d="M28.042 36.9955C26.5912 39.5863 27.5135 42.8611 30.1043 44.3119 32.6899 45.7627 35.9646 44.8404 37.4155 42.2496L54.9033 11.2172C55.1209 10.8338 55.3903 10.554 55.6908 10.3933 56.0017 10.2223 56.3955 10.1446 56.8515 10.1705 57.2712 10.1913 57.6391 10.3156 57.9241 10.5177 58.2143 10.725 58.4578 11.0359 58.6236 11.4297L84.8631 74.1474C85.8113 76.4169 86.1792 78.7123 85.9668 80.9093 85.7543 83.1063 84.9615 85.2826 83.5988 87.3293 82.2464 89.3656 80.552 90.9305 78.6089 91.9668 76.6762 93.0031 74.4222 93.5472 71.9558 93.5472L12.404 93.5472C11.9584 93.5472 11.5698 93.4539 11.2589 93.2725 10.9532 93.1015 10.6786 92.8166 10.4558 92.4383 10.2278 92.0393 10.1034 91.6559 10.1034 91.3191 10.1034 90.9719 10.2122 90.5833 10.4402 90.1843L24.3786 65.4268C25.8295 62.8412 24.9071 59.5664 22.3215 58.1156 19.7308 56.6648 16.456 57.5871 15.0052 60.1727L1.06675 84.9302C-0.073198 86.951-0.632807 89.1584-0.617263 91.402-0.596536 93.6508-0.00583754 95.8581 1.17038 97.8634 2.35178 99.8842 3.97879 101.496 5.92188 102.605 7.8546 103.719 10.0568 104.309 12.404 104.309L71.9558 104.309C76.1632 104.309 80.1219 103.314 83.6558 101.423 87.1844 99.5371 90.2105 96.7805 92.5525 93.257 94.8946 89.7439 96.2625 85.8992 96.6408 81.9197 97.0242 77.9455 96.4076 73.9142 94.7806 70.028L68.5463 7.31031C67.5826 5.02005 66.0592 3.13396 64.142 1.77121 62.2196 0.408457 59.9294-0.405049 57.437-0.550133 54.981-0.695217 52.6285-0.151152 50.5611 0.973248 48.4833 2.10801 46.7475 3.80238 45.5298 5.9631L28.042 36.9955" stroke="#004AAD" stroke-width="3.16259" stroke-linecap="butt" stroke-linejoin="miter" stroke-miterlimit="8" stroke-opacity="1" fill="none" fill-rule="nonzero" transform="matrix(1.00516 0 0 -1 486.068 399.65)"/></g><path d="M8.332 0 8.332-8.55999 16.1873-8.55999C17.2651-8.55999 18.2392-8.82943 19.1097-9.36831 19.9906-9.9072 20.7523-10.8036 21.3896-12.0627 22.0373-13.3167 22.5296-15.037 22.8612-17.2236 23.1928-19.4051 23.3586-22.1409 23.3586-25.4312 23.3586-28.9806 23.1617-31.8616 22.7783-34.0741 22.3896-36.2815 21.8352-37.9914 21.1202-39.1935 20.3999-40.406 19.576-41.2299 18.6537-41.66 17.7262-42.1004 16.7262-42.3232 15.6484-42.3232L8.332-42.3232 8.332-50.8832 15.5655-50.8832C19.2652-50.8832 22.5088-49.8883 25.2862-47.8986 28.0635-45.9192 30.2035-43.0331 31.7113-39.235 33.2295-35.4317 33.9912-30.8097 33.9912-25.3691 33.9912-20.944 33.5871-17.2288 32.7891-14.2183 32.0015-11.2181 30.9341-8.77761 29.5972-6.90188 28.2552-5.02096 26.8044-3.5753 25.2447-2.57007 23.6799-1.5752 22.1565-0.896415 20.6642-0.538885 19.1719-0.176173 17.8298 0 16.6433 0ZM3.23331 0 3.23331-50.8832 13.8038-50.8832 13.8038 0Z" fill="#004AAD" fill-rule="nonzero" fill-opacity="1" transform="matrix(1.00516 0 0 1 599.18 342.259)"/><path d="M3.23331 0 3.23331-50.8832 13.8659-50.8832 13.8659 0ZM10.2595 0 10.2595-8.64289 26.6748-8.64289 26.6748 0ZM10.2595-21.887 10.2595-29.9081 24.6644-29.9081 24.6644-21.887ZM10.2595-42.2403 10.2595-50.8832 26.6748-50.8832 26.6748-42.2403Z" fill="#004AAD" fill-rule="nonzero" fill-opacity="1" transform="matrix(1.00516 0 0 1 635.672 342.259)"/><path d="M3.23331 0 3.23331-50.8832 15.5655-50.8832 27.1308-16.8713 27.7526-16.8713 27.3588-50.8832 37.3904-50.8832 37.3904 0 25.1203 0 13.4929-34.7581 12.7882-34.7581 13.182 0Z" fill="#004AAD" fill-rule="nonzero" fill-opacity="1" transform="matrix(1.00516 0 0 1 664.029 342.259)"/><path d="M10.0937 0 10.0937-50.8832 20.6642-50.8832 20.6642 0ZM0.621791-42.1574 0.621791-50.8832 30.0532-50.8832 30.0532-42.1574Z" fill="#004AAD" fill-rule="nonzero" fill-opacity="1" transform="matrix(1.00516 0 0 1 704.783 342.259)"/><path d="M0.621791 0 9.72066-50.8832 25.7421-50.8832 34.7581 0 23.4415 0 17.9698-42.5512 17.12-42.5512 11.7104 0ZM8.55999-9.09887 8.55999-16.1044 26.9028-16.1044 26.9028-9.09887Z" fill="#004AAD" fill-rule="nonzero" fill-opacity="1" transform="matrix(1.00516 0 0 1 735.697 342.259)"/><path d="M3.23331 0 3.23331-50.8832 13.8659-50.8832 13.8659 0ZM5.47176 0 5.47176-9.18178 26.8199-9.18178 26.8199 0Z" fill="#004AAD" fill-rule="nonzero" fill-opacity="1" transform="matrix(1.00516 0 0 1 771.26 342.259)"/><path d="M8.55999 0 0.766875-50.8832 12.4773-50.8832 16.4982-9.18178 17.2651-9.18178 20.9751-50.8832 33.7632-50.8832 37.6183-9.18178 38.3023-9.18178 42.4683-50.8832 53.2667-50.8832 45.3907 0 31.0688 0 27.5246-41.8465 26.9857-41.8465 22.9648 0Z" fill="#004AAD" fill-rule="nonzero" fill-opacity="1" transform="matrix(1.00516 0 0 1 599.18 402.708)"/><path d="M3.23331 0 3.23331-50.8832 14.0317-50.8832 14.0317 0Z" fill="#004AAD" fill-rule="nonzero" fill-opacity="1" transform="matrix(1.00516 0 0 1 653.492 402.708)"/><path d="M17.1822 0.994865C14.0007 0.994865 11.3425 0.497433 9.2025-0.497433 7.07287-1.50266 5.43031-2.84987 4.26963-4.53907 3.11932-6.23863 2.40426-8.17655 2.11409-10.3632 1.83428-12.5446 1.95346-14.8193 2.46644-17.1822L12.1871-18.3428C11.9228-16.3946 11.8969-14.5395 12.1042-12.7882 12.3115-11.0471 12.8348-9.64294 13.6794-8.58071 14.5188-7.52885 15.7417-7.00551 17.348-7.00551 18.1615-7.00551 18.9024-7.17132 19.5657-7.50294 20.2393-7.84493 20.7782-8.39936 21.1823-9.16105 21.5969-9.93311 21.8041-10.9642 21.8041-12.2493 21.8041-14.1561 21.4155-15.7365 20.6435-16.9956 19.8818-18.2496 18.8299-19.3791 17.493-20.374 16.1666-21.3792 14.6794-22.4052 13.0369-23.4415 11.6379-24.312 10.2855-25.2084 8.97451-26.1359 7.65839-27.0583 6.47699-28.1257 5.43031-29.3278 4.37844-30.5299 3.54421-31.8875 2.92242-33.4109 2.31099-34.9291 2.01046-36.6908 2.01046-38.6961 2.01046-41.2662 2.55971-43.5254 3.66857-45.4736 4.77224-47.4323 6.41481-48.9608 8.60144-50.0542 10.7829-51.1578 13.5188-51.7123 16.8091-51.7123 20.4569-51.7123 23.4052-51.0179 25.6592-49.6396 27.9236-48.2561 29.5351-46.3286 30.4885-43.857 31.4419-41.3957 31.7839-38.5407 31.5248-35.297L21.8041-34.0741C22.0114-35.3592 22.0373-36.5613 21.887-37.6805 21.7316-38.8101 21.4518-39.8153 21.0373-40.6858 20.6331-41.5667 20.0631-42.2662 19.317-42.7792 18.5708-43.287 17.7055-43.5461 16.7262-43.5461 15.8557-43.5461 15.094-43.3492 14.4463-42.9657 13.8089-42.5771 13.3115-42.0538 12.954-41.3905 12.5913-40.7273 12.4151-39.9293 12.4151-39.007 12.4151-37.5665 12.7726-36.3437 13.4929-35.3384 14.2079-34.3436 15.1354-33.4731 16.2702-32.7269 17.3998-31.9808 18.5553-31.245 19.7315-30.5299 21.2756-29.6439 22.8042-28.6646 24.312-27.5868 25.8302-26.509 27.193-25.2706 28.3951-23.8768 29.6076-22.4933 30.5766-20.9025 31.2968-19.1097 32.0119-17.3117 32.3746-15.2339 32.3746-12.8711 32.3746-10.3528 31.8668-8.04183 30.8615-5.92774 29.8667-3.82401 28.2759-2.14518 26.0945-0.891233 23.9079 0.362712 20.9388 0.994865 17.1822 0.994865Z" fill="#004AAD" fill-rule="nonzero" fill-opacity="1" transform="matrix(1.00516 0 0 1 670.77 402.708)"/><path d="M8.332 0 8.332-8.55999 16.1873-8.55999C17.2651-8.55999 18.2392-8.82943 19.1097-9.36831 19.9906-9.9072 20.7523-10.8036 21.3896-12.0627 22.0373-13.3167 22.5296-15.037 22.8612-17.2236 23.1928-19.4051 23.3586-22.1409 23.3586-25.4312 23.3586-28.9806 23.1617-31.8616 22.7783-34.0741 22.3896-36.2815 21.8352-37.9914 21.1202-39.1935 20.3999-40.406 19.576-41.2299 18.6537-41.66 17.7262-42.1004 16.7262-42.3232 15.6484-42.3232L8.332-42.3232 8.332-50.8832 15.5655-50.8832C19.2652-50.8832 22.5088-49.8883 25.2862-47.8986 28.0635-45.9192 30.2035-43.0331 31.7113-39.235 33.2295-35.4317 33.9912-30.8097 33.9912-25.3691 33.9912-20.944 33.5871-17.2288 32.7891-14.2183 32.0015-11.2181 30.9341-8.77761 29.5972-6.90188 28.2552-5.02096 26.8044-3.5753 25.2447-2.57007 23.6799-1.5752 22.1565-0.896415 20.6642-0.538885 19.1719-0.176173 17.8298 0 16.6433 0ZM3.23331 0 3.23331-50.8832 13.8038-50.8832 13.8038 0Z" fill="#004AAD" fill-rule="nonzero" fill-opacity="1" transform="matrix(1.00516 0 0 1 704.938 402.708)"/><path d="M18.1977 0.994865C15.3064 0.994865 12.8503 0.419708 10.8192-0.725423 8.79834-1.8861 7.17132-3.58566 5.92774-5.82411 4.69452-8.06255 3.7981-10.8088 3.23331-14.0732 2.66334-17.3324 2.38353-21.0683 2.38353-25.2862 2.38353-31.2968 2.92242-36.2608 4.00019-40.1884 5.07796-44.1264 6.79825-47.0385 9.16105-48.9349 11.5342-50.8418 14.5706-51.7952 18.2599-51.7952 21.1461-51.7952 23.597-51.2563 25.6178-50.1785 27.649-49.1007 29.3174-47.4841 30.6336-45.3285 31.9445-43.173 32.9031-40.4371 33.5145-37.1209 34.1363-33.8047 34.4472-29.9081 34.4472-25.4312 34.4472-21.172 34.1363-17.3998 33.5145-14.1146 32.9031-10.8243 31.96-8.06255 30.675-5.82411 29.39-3.58566 27.7163-1.8861 25.6592-0.725423 23.6125 0.419708 21.1253 0.994865 18.1977 0.994865ZM18.2599-7.3164C19.1408-7.3164 19.918-7.65839 20.5813-8.35272 21.2445-9.05742 21.8041-10.1248 22.2601-11.5653 22.7265-13.0006 23.0788-14.8401 23.3172-17.0785 23.5503-19.317 23.6695-21.9751 23.6695-25.0582 23.6695-29.0635 23.4622-32.4264 23.0477-35.1519 22.6332-37.8722 22.0218-39.9397 21.2238-41.3491 20.4362-42.7688 19.4258-43.4839 18.1977-43.4839 17.4205-43.4839 16.7365-43.173 16.1458-42.5512 15.55-41.9294 15.0318-40.919 14.5914-39.5252 14.1613-38.1417 13.8297-36.297 13.5965-33.9912 13.3737-31.6802 13.2649-28.8304 13.2649-25.4312 13.2649-21.9337 13.3737-19.0164 13.5965-16.6847 13.8297-14.3478 14.1613-12.4824 14.5914-11.0886 15.0318-9.70512 15.5655-8.73098 16.1873-8.16619 16.8091-7.59621 17.4982-7.3164 18.2599-7.3164Z" fill="#004AAD" fill-rule="nonzero" fill-opacity="1" transform="matrix(1.00516 0 0 1 741.43 402.708)"/><path d="M3.23331 0 3.23331-50.8832 19.5035-50.8832 25.9079-10.5704 26.509-10.5704 32.8306-50.8832 48.7898-50.8832 48.7898 0 39.007 0 39.3801-40.8517 38.779-40.8517 31.2968 0 20.8093 0 13.41-40.8517 12.7882-40.8517 13.182 0Z" fill="#004AAD" fill-rule="nonzero" fill-opacity="1" transform="matrix(1.00516 0 0 1 778.465 402.708)"/><path d="M14.7364-9.86575 11.4824-9.86575C11.358-10.7052 10.9953-11.3632 10.4046-11.8348 9.82429-12.3166 9.08851-12.5602 8.20764-12.5602 7.03142-12.5602 6.08319-12.1249 5.36813-11.2544 4.66343-10.3943 4.31108-9.18178 4.31108-7.60657 4.31108-5.97437 4.66343-4.73597 5.36813-3.89656 6.08319-3.05196 7.02624-2.63225 8.18691-2.63225 9.04187-2.63225 9.7673-2.84987 10.3632-3.29549 10.9539-3.75147 11.327-4.38363 11.4824-5.20232L14.7364-5.18159C14.6121-4.25408 14.2701-3.3784 13.7208-2.54934 13.182-1.73065 12.4358-1.06741 11.4824-0.559612 10.5394-0.0466342 9.42013 0.207264 8.12473 0.207264 6.76716 0.207264 5.55984-0.0932686 4.49762-0.704696 3.43021-1.32649 2.59079-2.21772 1.969-3.3784 1.35758-4.53907 1.05704-5.94846 1.05704-7.60657 1.05704-9.24914 1.36794-10.6533 1.98973-11.814 2.61152-12.9851 3.45094-13.8763 4.51835-14.4877 5.59612-15.094 6.79825-15.3997 8.12473-15.3997 9.29577-15.3997 10.3528-15.1769 11.2959-14.7364 12.2493-14.3064 13.0213-13.6794 13.6172-12.8503 14.2235-12.0316 14.5965-11.0368 14.7364-9.86575Z" fill="#234AFF" fill-rule="nonzero" fill-opacity="1" transform="matrix(1.00516 0 0 1 455.335 442.35)"/><path d="M15.2753-7.60657C15.2753-5.94846 14.9644-4.52871 14.3426-3.35767 13.7208-2.19699 12.8711-1.31094 11.7933-0.704696 10.7155-0.0932686 9.50303 0.207264 8.16619 0.207264 6.80861 0.207264 5.59612-0.0932686 4.51835-0.704696 3.45094-1.32649 2.61152-2.21772 1.98973-3.3784 1.36794-4.53907 1.05704-5.94846 1.05704-7.60657 1.05704-9.24914 1.36794-10.6533 1.98973-11.814 2.61152-12.9851 3.45094-13.8763 4.51835-14.4877 5.59612-15.094 6.80861-15.3997 8.16619-15.3997 9.50303-15.3997 10.7155-15.094 11.7933-14.4877 12.8711-13.8763 13.7208-12.9851 14.3426-11.814 14.9644-10.6533 15.2753-9.24914 15.2753-7.60657ZM12.0213-7.60657C12.0213-9.20768 11.6689-10.4305 10.9642-11.2751 10.2699-12.1301 9.33722-12.5602 8.16619-12.5602 7.00551-12.5602 6.07282-12.1301 5.36813-11.2751 4.66343-10.4305 4.31108-9.20768 4.31108-7.60657 4.31108-5.98992 4.66343-4.75152 5.36813-3.89656 6.07282-3.05196 7.00551-2.63225 8.16619-2.63225 9.33722-2.63225 10.2699-3.05196 10.9642-3.89656 11.6689-4.75152 12.0213-5.98992 12.0213-7.60657Z" fill="#234AFF" fill-rule="nonzero" fill-opacity="1" transform="matrix(1.00516 0 0 1 473.605 442.35)"/><path d="M14.0317-15.1924 14.0317 0 11.2544 0 4.6427-9.55485 4.53907-9.55485 4.53907 0 1.32649 0 1.32649-15.1924 4.14527-15.1924 10.6948-5.63757 10.8399-5.63757 10.8399-15.1924Z" fill="#234AFF" fill-rule="nonzero" fill-opacity="1" transform="matrix(1.00516 0 0 1 492.502 442.35)"/><path d="M14.0317-15.1924 14.0317 0 11.2544 0 4.6427-9.55485 4.53907-9.55485 4.53907 0 1.32649 0 1.32649-15.1924 4.14527-15.1924 10.6948-5.63757 10.8399-5.63757 10.8399-15.1924Z" fill="#234AFF" fill-rule="nonzero" fill-opacity="1" transform="matrix(1.00516 0 0 1 510.414 442.35)"/><path d="M1.32649 0 1.32649-15.1924 11.5653-15.1924 11.5653-12.5394 4.53907-12.5394 4.53907-8.93306 11.0264-8.93306 11.0264-6.28009 4.53907-6.28009 4.53907-2.65297 11.586-2.65297 11.586 0Z" fill="#234AFF" fill-rule="nonzero" fill-opacity="1" transform="matrix(1.00516 0 0 1 528.326 442.35)"/><path d="M14.7364-9.86575 11.4824-9.86575C11.358-10.7052 10.9953-11.3632 10.4046-11.8348 9.82429-12.3166 9.08851-12.5602 8.20764-12.5602 7.03142-12.5602 6.08319-12.1249 5.36813-11.2544 4.66343-10.3943 4.31108-9.18178 4.31108-7.60657 4.31108-5.97437 4.66343-4.73597 5.36813-3.89656 6.08319-3.05196 7.02624-2.63225 8.18691-2.63225 9.04187-2.63225 9.7673-2.84987 10.3632-3.29549 10.9539-3.75147 11.327-4.38363 11.4824-5.20232L14.7364-5.18159C14.6121-4.25408 14.2701-3.3784 13.7208-2.54934 13.182-1.73065 12.4358-1.06741 11.4824-0.559612 10.5394-0.0466342 9.42013 0.207264 8.12473 0.207264 6.76716 0.207264 5.55984-0.0932686 4.49762-0.704696 3.43021-1.32649 2.59079-2.21772 1.969-3.3784 1.35758-4.53907 1.05704-5.94846 1.05704-7.60657 1.05704-9.24914 1.36794-10.6533 1.98973-11.814 2.61152-12.9851 3.45094-13.8763 4.51835-14.4877 5.59612-15.094 6.79825-15.3997 8.12473-15.3997 9.29577-15.3997 10.3528-15.1769 11.2959-14.7364 12.2493-14.3064 13.0213-13.6794 13.6172-12.8503 14.2235-12.0316 14.5965-11.0368 14.7364-9.86575Z" fill="#234AFF" fill-rule="nonzero" fill-opacity="1" transform="matrix(1.00516 0 0 1 543.667 442.35)"/><path d="M0.746149-12.5394 0.746149-15.1924 13.2234-15.1924 13.2234-12.5394 8.55999-12.5394 8.55999 0 5.38885 0 5.38885-12.5394Z" fill="#234AFF" fill-rule="nonzero" fill-opacity="1" transform="matrix(1.00516 0 0 1 561.937 442.35)"/><path d="M4.53907-15.1924 4.53907 0 1.32649 0 1.32649-15.1924Z" fill="#234AFF" fill-rule="nonzero" fill-opacity="1" transform="matrix(1.00516 0 0 1 578.448 442.35)"/><path d="M14.0317-15.1924 14.0317 0 11.2544 0 4.6427-9.55485 4.53907-9.55485 4.53907 0 1.32649 0 1.32649-15.1924 4.14527-15.1924 10.6948-5.63757 10.8399-5.63757 10.8399-15.1924Z" fill="#234AFF" fill-rule="nonzero" fill-opacity="1" transform="matrix(1.00516 0 0 1 586.816 442.35)"/><path d="M11.3995-10.2803C11.1922-10.9953 10.8088-11.5549 10.2595-11.9591 9.72066-12.3581 9.03669-12.5602 8.20764-12.5602 7.04696-12.5602 6.10391-12.1301 5.38885-11.2751 4.66861-10.415 4.31108-9.19214 4.31108-7.60657 4.31108-6.01582 4.66343-4.78779 5.36813-3.91728 6.07282-3.05714 7.03142-2.63225 8.24909-2.63225 9.31132-2.63225 10.1456-2.90687 10.757-3.4613 11.3632-4.02609 11.6793-4.77742 11.7104-5.72047L8.43563-5.72047 8.43563-8.12473 14.7986-8.12473 14.7986-6.21791C14.7986-4.89142 14.5136-3.74111 13.9488-2.77733 13.3944-1.80837 12.6224-1.06741 11.6275-0.559612 10.643-0.0466342 9.5134 0.207264 8.22836 0.207264 6.80343 0.207264 5.55466-0.103632 4.47689-0.725423 3.39912-1.35758 2.55452-2.25917 1.94828-3.41985 1.35239-4.59089 1.05704-5.97955 1.05704-7.58585 1.05704-9.22841 1.36794-10.6326 1.98973-11.7933 2.62188-12.9643 3.47167-13.8556 4.53907-14.467 5.61684-15.0888 6.82415-15.3997 8.16619-15.3997 9.31132-15.3997 10.3476-15.1769 11.2751-14.7364 12.1975-14.3064 12.9592-13.7053 13.555-12.9332 14.1457-12.1716 14.5136-11.2855 14.6535-10.2803Z" fill="#234AFF" fill-rule="nonzero" fill-opacity="1" transform="matrix(1.00516 0 0 1 604.729 442.35)"/><path d="M1.32649 0 1.32649-15.1924 11.3788-15.1924 11.3788-12.5394 4.53907-12.5394 4.53907-8.93306 10.7155-8.93306 10.7155-6.28009 4.53907-6.28009 4.53907 0Z" fill="#234AFF" fill-rule="nonzero" fill-opacity="1" transform="matrix(1.00516 0 0 1 630.525 442.35)"/><path d="M1.32649 0 1.32649-15.1924 7.3164-15.1924C9.04187-15.1924 10.3839-14.7416 11.3373-13.8452 12.2907-12.9436 12.7674-11.7415 12.7674-10.2388 12.7674-9.18696 12.5291-8.29572 12.0627-7.56512 11.6068-6.82934 10.9435-6.28009 10.073-5.90701L13.3063 0 9.76211 0 6.88115-5.38885 4.53907-5.38885 4.53907 0ZM4.53907-7.95892 6.71534-7.95892C8.53926-7.95892 9.45122-8.71543 9.45122-10.2388 9.45122-11.7829 8.5289-12.5602 6.69461-12.5602L4.53907-12.5602Z" fill="#234AFF" fill-rule="nonzero" fill-opacity="1" transform="matrix(1.00516 0 0 1 645.284 442.35)"/><path d="M10.7363-15.1924 13.9281-15.1924 13.9281-5.14014C13.9281-3.98982 13.6483-3.01569 13.0991-2.21772 12.5602-1.43012 11.814-0.829054 10.8606-0.414527 9.91756 0 8.83979 0.207264 7.6273 0.207264 6.39408 0.207264 5.30595 0 4.35254-0.414527 3.39912-0.829054 2.65297-1.43012 2.11409-2.21772 1.58557-3.01569 1.32649-3.98982 1.32649-5.14014L1.32649-15.1924 4.53907-15.1924 4.53907-5.26449C4.53907-4.4458 4.82924-3.80329 5.40958-3.33694 6.00028-2.88096 6.74125-2.65297 7.6273-2.65297 8.52371-2.65297 9.26468-2.88096 9.84502-3.33694 10.4357-3.80329 10.7363-4.4458 10.7363-5.26449Z" fill="#234AFF" fill-rule="nonzero" fill-opacity="1" transform="matrix(1.00516 0 0 1 661.541 442.35)"/><path d="M1.32649-15.1924 5.28522-15.1924 9.47195-4.99505 9.63776-4.99505 13.8245-15.1924 17.7832-15.1924 17.7832 0 14.6743 0 14.6743-9.88647 14.5499-9.88647 10.6119-0.0829054 8.49781-0.0829054 4.5598-9.92793 4.43544-9.92793 4.43544 0 1.32649 0Z" fill="#234AFF" fill-rule="nonzero" fill-opacity="1" transform="matrix(1.00516 0 0 1 679.334 442.35)"/><path d="M6.71534 0 1.32649 0 1.32649-15.1924 6.75679-15.1924C8.275-15.1924 9.58594-14.8867 10.6948-14.2805 11.7985-13.669 12.6483-12.7985 13.2441-11.6689 13.8348-10.5342 14.1354-9.18178 14.1354-7.60657 14.1354-6.03137 13.8348-4.66861 13.2441-3.52348 12.6483-2.38871 11.7933-1.51821 10.6741-0.91196 9.56522-0.300532 8.24909 0 6.71534 0ZM4.53907-2.75661 6.57026-2.75661C8.00556-2.75661 9.08851-3.13486 9.82429-3.89656 10.5704-4.66861 10.9435-5.90701 10.9435-7.60657 10.9435-9.29059 10.5704-10.5134 9.82429-11.2751 9.08851-12.0472 8.01074-12.4358 6.59098-12.4358L4.53907-12.4358Z" fill="#234AFF" fill-rule="nonzero" fill-opacity="1" transform="matrix(1.00516 0 0 1 708.56 442.35)"/><path d="M1.32649 0 1.32649-15.1924 11.5653-15.1924 11.5653-12.5394 4.53907-12.5394 4.53907-8.93306 11.0264-8.93306 11.0264-6.28009 4.53907-6.28009 4.53907-2.65297 11.586-2.65297 11.586 0Z" fill="#234AFF" fill-rule="nonzero" fill-opacity="1" transform="matrix(1.00516 0 0 1 726.309 442.35)"/><path d="M14.0317-15.1924 14.0317 0 11.2544 0 4.6427-9.55485 4.53907-9.55485 4.53907 0 1.32649 0 1.32649-15.1924 4.14527-15.1924 10.6948-5.63757 10.8399-5.63757 10.8399-15.1924Z" fill="#234AFF" fill-rule="nonzero" fill-opacity="1" transform="matrix(1.00516 0 0 1 741.649 442.35)"/><path d="M0.746149-12.5394 0.746149-15.1924 13.2234-15.1924 13.2234-12.5394 8.55999-12.5394 8.55999 0 5.38885 0 5.38885-12.5394Z" fill="#234AFF" fill-rule="nonzero" fill-opacity="1" transform="matrix(1.00516 0 0 1 759.561 442.35)"/><path d="M4.53907-15.1924 4.53907 0 1.32649 0 1.32649-15.1924Z" fill="#234AFF" fill-rule="nonzero" fill-opacity="1" transform="matrix(1.00516 0 0 1 776.072 442.35)"/><path d="M9.55485-10.8192C9.49785-11.4254 9.24396-11.8969 8.78798-12.2286 8.34236-12.5602 7.73611-12.726 6.96406-12.726 6.17646-12.726 5.56503-12.5602 5.14014-12.2286 4.72561-11.9073 4.51835-11.5083 4.51835-11.0264 4.51835-10.472 4.75152-10.0575 5.22304-9.78284 5.70493-9.50303 6.26972-9.29059 6.9226-9.14032L8.29054-8.8087C9.17141-8.6118 9.95383-8.32163 10.6326-7.9382 11.3218-7.56512 11.8607-7.07805 12.2493-6.48735 12.6483-5.90701 12.8503-5.18677 12.8503-4.33181 12.8503-2.94832 12.3322-1.84465 11.2959-1.01559 10.2595-0.196901 8.8087 0.207264 6.94333 0.207264 5.10387 0.207264 3.63229-0.207264 2.52862-1.03632 1.4353-1.87573 0.870507-3.11932 0.829054-4.76706L3.93801-4.76706C3.98982-4.00537 4.29036-3.43021 4.82924-3.04677 5.37849-2.6737 6.078-2.48716 6.9226-2.48716 7.73611-2.48716 8.38381-2.65816 8.87088-3.00532 9.35277-3.34731 9.60149-3.7981 9.61703-4.35254 9.60149-4.86033 9.3735-5.25413 8.93306-5.53394 8.48744-5.80856 7.85529-6.04173 7.02624-6.23863L5.36813-6.65316C4.08309-6.96924 3.0675-7.46149 2.32135-8.12473 1.58557-8.78798 1.22286-9.67921 1.22286-10.7984 1.22286-11.7208 1.47157-12.5291 1.969-13.2234 2.46644-13.9126 3.15041-14.4463 4.02091-14.8193 4.89142-15.2028 5.87592-15.3997 6.98478-15.3997 8.11437-15.3997 9.10405-15.2028 9.94865-14.8193 10.7881-14.4307 11.4461-13.8918 11.9177-13.2027 12.384-12.5239 12.6275-11.7311 12.6431-10.8192Z" fill="#234AFF" fill-rule="nonzero" fill-opacity="1" transform="matrix(1.00516 0 0 1 784.44 442.35)"/><path d="M0.746149-12.5394 0.746149-15.1924 13.2234-15.1924 13.2234-12.5394 8.55999-12.5394 8.55999 0 5.38885 0 5.38885-12.5394Z" fill="#234AFF" fill-rule="nonzero" fill-opacity="1" transform="matrix(1.00516 0 0 1 800.668 442.35)"/><path d="M9.55485-10.8192C9.49785-11.4254 9.24396-11.8969 8.78798-12.2286 8.34236-12.5602 7.73611-12.726 6.96406-12.726 6.17646-12.726 5.56503-12.5602 5.14014-12.2286 4.72561-11.9073 4.51835-11.5083 4.51835-11.0264 4.51835-10.472 4.75152-10.0575 5.22304-9.78284 5.70493-9.50303 6.26972-9.29059 6.9226-9.14032L8.29054-8.8087C9.17141-8.6118 9.95383-8.32163 10.6326-7.9382 11.3218-7.56512 11.8607-7.07805 12.2493-6.48735 12.6483-5.90701 12.8503-5.18677 12.8503-4.33181 12.8503-2.94832 12.3322-1.84465 11.2959-1.01559 10.2595-0.196901 8.8087 0.207264 6.94333 0.207264 5.10387 0.207264 3.63229-0.207264 2.52862-1.03632 1.4353-1.87573 0.870507-3.11932 0.829054-4.76706L3.93801-4.76706C3.98982-4.00537 4.29036-3.43021 4.82924-3.04677 5.37849-2.6737 6.078-2.48716 6.9226-2.48716 7.73611-2.48716 8.38381-2.65816 8.87088-3.00532 9.35277-3.34731 9.60149-3.7981 9.61703-4.35254 9.60149-4.86033 9.3735-5.25413 8.93306-5.53394 8.48744-5.80856 7.85529-6.04173 7.02624-6.23863L5.36813-6.65316C4.08309-6.96924 3.0675-7.46149 2.32135-8.12473 1.58557-8.78798 1.22286-9.67921 1.22286-10.7984 1.22286-11.7208 1.47157-12.5291 1.969-13.2234 2.46644-13.9126 3.15041-14.4463 4.02091-14.8193 4.89142-15.2028 5.87592-15.3997 6.98478-15.3997 8.11437-15.3997 9.10405-15.2028 9.94865-14.8193 10.7881-14.4307 11.4461-13.8918 11.9177-13.2027 12.384-12.5239 12.6275-11.7311 12.6431-10.8192Z" fill="#234AFF" fill-rule="nonzero" fill-opacity="1" transform="matrix(1.00516 0 0 1 817.178 442.35)"/></g></g></g></g></g></svg>